<?xml version="1.0" encoding="iso-8859-1"?>
<!-- Generator: Adobe Illustrator 16.0.0, SVG Export Plug-In . SVG Version: 6.00 Build 0)  -->
<!DOCTYPE svg PUBLIC "-//W3C//DTD SVG 1.1//EN" "http://www.w3.org/Graphics/SVG/1.1/DTD/svg11.dtd">
<svg version="1.1" id="Capa_1" xmlns="http://www.w3.org/2000/svg" xmlns:xlink="http://www.w3.org/1999/xlink" x="0px" y="0px"
	 width="105.113px" height="105.113px" viewBox="0 0 105.113 105.113" style="enable-background:new 0 0 105.113 105.113;"
	 xml:space="preserve">
<g>
	<g>
		<circle cx="72.827" cy="12.841" r="11.396"/>
		<path d="M102.793,40.559L83.57,35.23l-10.493-9.167c-0.112-0.099-0.237-0.198-0.362-0.287c-0.622-0.447-1.315-0.718-2.023-0.835
			c-0.988-0.479-2.065-0.818-3.217-0.967c-1.859-0.24-3.664,0.03-5.283,0.69c-0.705,0.019-1.416,0.187-2.085,0.532l-12.45,6.424
			l-0.382,0.197c-0.802,0.417-1.449,1.134-1.757,2.061l-3.144,9.49l-1.54,4.771l-0.753,2.421l-0.371,1.25l-0.193,0.697l-0.118,0.46
			c-0.088,0.388-0.135,0.795-0.14,1.186c0.018,0.451,0.132,0.874,0.317,1.256l-9.75,4.203l-8.746-2.451
			c-0.55-0.427-1.179-0.771-1.881-0.994c-1.041-0.33-2.103-0.357-3.1-0.143c-0.399-0.061-0.816-0.043-1.229,0.085l-7.757,2.389
			l-0.237,0.074c-0.501,0.155-0.943,0.499-1.213,0.995l-2.766,5.089l-1.364,2.565l-0.679,1.309l-0.34,0.668l-0.117,0.242
			L0.25,69.785c-0.091,0.232-0.169,0.469-0.232,0.701c-0.141,1.002,0.558,1.93,1.56,2.07c1.003,0.14,1.929-0.559,2.07-1.562
			c0.041,0.017,0.067,0.036,0.081,0.054c0.007,0.008,0.011,0.014,0.012,0.02c0.003-0.002-0.006,0.013,0.004-0.002l0.047-0.073
			l0.373-0.585l0.771-1.184l1.587-2.387l2.619-3.865l1.659-0.338l-3.054,9.639c-0.273,0.863-0.337,1.74-0.23,2.582
			c-0.127,0.32-0.214,0.66-0.227,1.023l-0.257,7.471l-6.499,9.293c-0.574,0.817-0.454,1.953,0.313,2.631
			C1.67,96,2.928,95.921,3.655,95.097l8.13-9.211c0.286-0.322,0.48-0.731,0.536-1.191l0.03-0.258l0.521-4.33
			c0.092,0.011,0.183,0.017,0.273,0.021l6.63,7.719l-1.608,8.465c-0.188,0.98,0.387,1.967,1.363,2.271
			c1.049,0.326,2.163-0.259,2.489-1.308l2.969-9.543c0.201-0.656,0.104-1.408-0.331-2.006l-0.144-0.197l-5.929-8.146
			c0.289-0.445,0.537-0.924,0.705-1.455l3.852-12.164c0.054-0.17,0.097-0.342,0.135-0.514l6.165,1.207l0.188,0.037
			c0.46,0.09,0.95,0.029,1.396-0.207l12.187-6.458c0.458-0.245,0.771-0.667,0.9-1.142c0.915-0.586,1.512-1.615,1.468-2.779
			c0.038,0.188,0.034,0.393-0.011,0.578l-0.018,0.066l0.012-0.029l0.022-0.057l0.045-0.117l0.189-0.486l0.448-1.099l0.952-2.254
			l1.973-4.54l3.271-7.368l2.716-1.08l-2.246,17.309c-0.199,1.539-0.044,3.04,0.388,4.431c-0.125,0.586-0.156,1.203-0.066,1.832
			l1.87,12.961l-9.207,24.998c-0.603,1.65,0.142,3.53,1.763,4.291c1.716,0.805,3.759,0.065,4.562-1.649L64.13,76.337
			c0.26-0.557,0.396-1.197,0.357-1.852l-0.021-0.395l-0.435-7.498c0.165-0.011,0.328-0.027,0.491-0.045l13.525,11.014l-0.911,22.007
			c-0.068,1.764,1.228,3.327,3.011,3.546c1.88,0.23,3.591-1.107,3.82-2.986l2.968-24.23c0.141-1.217-0.267-2.504-1.219-3.418
			l-0.257-0.245L72.926,60.226c0.355-0.846,0.607-1.752,0.731-2.707l2.277-17.55l3.077,2.207l0.325,0.235
			c0.381,0.27,0.824,0.463,1.313,0.552l20.729,3.764c1.592,0.284,3.179-0.682,3.617-2.27
			C105.467,42.771,104.479,41.025,102.793,40.559z"/>
		<path d="M21.012,56.536c3.41,1.291,7.222-0.427,8.513-3.837c0.581-1.533,0.548-3.146,0.031-4.577l0.002,0.001
			c2.456,0.624,2.667-4.744,1.361-2.868c-0.614,0.883-1.813,0.783-2.909,0.433c-0.642-0.64-1.421-1.161-2.323-1.502
			c-3.41-1.292-7.221,0.427-8.512,3.837C15.883,51.433,17.602,55.245,21.012,56.536z"/>
	</g>
</g>
<g>
</g>
<g>
</g>
<g>
</g>
<g>
</g>
<g>
</g>
<g>
</g>
<g>
</g>
<g>
</g>
<g>
</g>
<g>
</g>
<g>
</g>
<g>
</g>
<g>
</g>
<g>
</g>
<g>
</g>
</svg>
